<svg xmlns="http://www.w3.org/2000/svg" viewBox="0 0 256 256" role="img" aria-labelledby="title desc">
  <title id="title">Needle</title><desc id="desc">Dark compass and search needle with neon green accent.</desc>
  <rect width="256" height="256" rx="42" fill="#0f141a"/>
  <circle cx="128" cy="128" r="82" fill="#10161c" stroke="#050708" stroke-width="12"/>
  <path d="M128 54v24M202 128h-24M128 202v-24M54 128h24" stroke="#b9ff31" stroke-width="10" stroke-linecap="square"/>
  <path d="M128 59a69 69 0 0 1 69 69M197 128a69 69 0 0 1-69 69M128 197a69 69 0 0 1-69-69M59 128a69 69 0 0 1 69-69" fill="none" stroke="#b9ff31" stroke-width="9"/>
  <path d="M86 171 126 116 170 86 139 139z" fill="#b9ff31"/>
  <path d="M86 171 117 127 139 139z" fill="#47505a"/>
  <circle cx="128" cy="128" r="13" fill="#11161b" stroke="#b9ff31" stroke-width="8"/>
</svg>
